# This file uses centimeters as units for non-parametric coordinates.

mtllib arrow.mtl
g default
v 0.043941 1.909644 -1.011894
v -0.043941 1.909644 -1.011894
v 0.043941 2.025006 -1.011894
v -0.043941 2.025006 -1.011894
v 0.014164 1.981619 4.328738
v -0.014311 1.981585 4.328914
v -0.014311 1.953063 4.328914
v 0.014311 1.953063 4.328914
v 0.072605 1.909643 3.125154
v -0.072604 1.909643 3.125154
v 0.072605 2.025006 3.125154
v -0.072604 2.025006 3.125154
v 0.169285 1.798038 3.385566
v -0.169285 1.798038 3.385566
v 0.169285 2.136609 3.385566
v -0.169285 2.136609 3.385566
v 0.000000 2.025006 -1.011894
v 0.000000 2.025006 3.125154
v 0.000000 2.139086 3.385566
v -0.000260 1.984989 4.323155
v -0.000073 1.981602 4.328826
v 0.000000 1.953063 4.328914
v 0.000000 1.949718 4.323464
v 0.000000 1.795561 3.385566
v 0.000000 1.909643 3.125154
v 0.000000 1.909644 -1.011894
vt 0.953168 0.480503
vt 0.950278 0.480955
vt 0.942322 0.160536
vt 0.949533 0.160566
vt 0.955792 0.489913
vt 0.950573 0.490156
vt 0.954654 0.877984
vt 0.960540 0.161352
vt 0.957258 0.994319
vt 0.948507 0.048553
vt 0.947109 0.048465
vt 0.955900 0.994358
vt 0.947089 0.049064
vt 0.955894 0.993762
vt 0.945351 0.490052
vt 0.947840 0.878057
vt 0.935102 0.160455
vt 0.947368 0.480757
vt 0.943030 0.136261
vt 0.956358 0.135962
vt 0.939059 0.904786
vt 0.929785 0.134909
vt 0.954939 0.904626
vt 0.985347 0.136161
vt 0.944531 0.046565
vt 0.945733 0.048533
vt 0.947279 0.046336
vt 0.950010 0.046778
vt 0.970819 0.904446
vt 0.900832 0.132714
vt 0.954542 0.994348
vt 0.923995 0.162229
vt 0.961467 0.877912
vn 0.000000 1.000000 -0.000000
vn 0.000000 1.000000 -0.000000
vn 0.000000 1.000000 -0.000000
vn 0.000000 1.000000 -0.000000
vn 0.000000 0.000000 -1.000000
vn 0.000000 0.000000 -1.000000
vn 0.000000 0.000000 -1.000000
vn 0.000000 0.000000 -1.000000
vn 0.000000 -1.000000 -0.000000
vn 0.000000 -1.000000 -0.000000
vn 0.000000 -1.000000 -0.000000
vn 0.000000 -1.000000 -0.000000
vn 0.003072 0.004622 0.999985
vn 0.003072 0.004622 0.999985
vn 0.003072 0.003081 0.999991
vn 0.003072 0.003085 0.999991
vn 0.026386 0.986058 0.164294
vn -0.000151 0.986394 0.164401
vn 0.002118 0.858557 0.512715
vn 0.000000 -0.852257 0.523122
vn 0.000000 -0.986393 0.164405
vn 0.026389 -0.986058 0.164294
vn -0.999976 0.000000 -0.006928
vn -0.999976 0.000000 -0.006928
vn -0.999976 0.000000 -0.006928
vn -0.999976 0.000000 -0.006928
vn 0.999976 0.000000 -0.006928
vn 0.999976 0.000000 -0.006928
vn 0.999976 0.000000 -0.006928
vn 0.999976 0.000000 -0.006928
vn 0.009388 0.916883 -0.399046
vn 0.000000 0.916923 -0.399064
vn 0.000000 0.916923 -0.399064
vn 0.009388 0.916883 -0.399046
vn -0.937476 0.000000 -0.348050
vn -0.937476 0.000000 -0.348050
vn -0.937476 0.000000 -0.348050
vn -0.937476 0.000000 -0.348050
vn -0.000000 -0.916921 -0.399070
vn -0.000000 -0.916921 -0.399070
vn 0.009389 -0.916880 -0.399052
vn 0.009389 -0.916880 -0.399052
vn 0.937477 0.000000 -0.348048
vn 0.937477 0.000000 -0.348048
vn 0.937477 0.000000 -0.348048
vn 0.937477 0.000000 -0.348048
vn 0.026389 0.986069 0.164232
vn -0.000012 0.986412 0.164290
vn -0.986773 0.000000 0.162108
vn -0.986773 0.000000 0.162108
vn -0.986773 0.000000 0.162108
vn -0.986773 0.000000 0.162108
vn 0.000000 -0.986412 0.164291
vn 0.026393 -0.986068 0.164234
vn 0.986758 0.000471 0.162198
vn 0.986758 0.000471 0.162198
vn 0.986758 0.000471 0.162198
vn 0.986758 0.000471 0.162198
vn 0.000000 0.000000 -1.000000
vn 0.000000 0.000000 -1.000000
vn 0.000000 1.000000 -0.000000
vn 0.000000 1.000000 -0.000000
vn -0.009388 0.916883 -0.399047
vn -0.009388 0.916883 -0.399047
vn -0.026467 0.986056 0.164297
vn -0.026472 0.986067 0.164232
vn 0.003073 0.001542 0.999994
vn 0.003073 0.001542 0.999994
vn -0.026389 -0.986058 0.164294
vn -0.026393 -0.986068 0.164234
vn -0.009389 -0.916880 -0.399052
vn -0.009389 -0.916880 -0.399052
vn 0.000000 -1.000000 -0.000000
vn 0.000000 -1.000000 -0.000000
s 1
g Arrow Moviles xBow_grp
usemtl aiStandardSurface6SG
f 3/1/1 17/2/2 18/3/3 11/4/4
s 2
f 3/1/5 1/5/6 26/6/7 17/2/8
s 3
f 25/7/9 26/6/10 1/5/11 9/33/12
s 4
f 8/28/13 5/10/14 21/11/15 22/27/16
s 5
f 5/10/17 20/13/18 21/11/19
s 6
f 22/12/20 23/14/21 8/9/22
s off
f 2/15/23 10/32/24 12/17/25 4/18/26
f 3/1/27 11/4/28 9/8/29 1/5/30
s 7
f 11/4/31 18/3/32 19/19/33 15/20/34
s off
f 12/17/35 10/32/36 14/30/37 16/22/38
s 8
f 24/23/39 25/7/40 9/33/41 13/29/42
s off
f 9/8/43 11/4/44 15/20/45 13/24/46
s 5
f 15/20/47 19/19/48 20/13/18 5/10/17
s off
f 16/22/49 14/30/50 7/25/51 6/26/52
s 6
f 8/9/22 23/14/21 24/23/53 13/29/54
s off
f 13/24/55 15/20/56 5/10/57 8/28/58
s 2
f 2/15/59 4/18/60 17/2/8 26/6/7
s 1
f 17/2/2 4/18/61 12/17/62 18/3/3
s 7
f 16/22/63 19/19/33 18/3/32 12/17/64
s 5
f 6/26/65 20/13/18 19/19/48 16/22/66
f 21/11/19 20/13/18 6/26/65
s 4
f 6/26/67 7/25/68 22/27/16 21/11/15
s 6
f 7/31/69 23/14/21 22/12/20
f 14/21/70 24/23/53 23/14/21 7/31/69
s 8
f 10/16/71 25/7/40 24/23/39 14/21/72
s 3
f 2/15/73 26/6/10 25/7/9 10/16/74
