# File produced by Open Asset Import Library (http://www.assimp.sf.net)
# (assimp v3.1.193236683)

mtllib Suelo_tile.mtl

# 16 vertex positions
v  -1 0 0.333333
v  -1 0 1
v  -0.333333 0 1
v  -0.333333 0 0.333333
v  0.333333 0 1
v  0.333333 0 0.333333
v  1 0 1
v  1 0 0.333333
v  -1 0 -0.333333
v  -0.333333 0 -0.333333
v  0.333333 0 -0.333333
v  1 0 -0.333333
v  -1 0 -1
v  -0.333333 0 -1
v  0.333333 0 -1
v  1 0 -1

# 4 UV coordinates
vt 0 1 0
vt 0 0 0
vt 1 0 0
vt 1 1 0

# 1 vertex normals
vn 0 1 0

# Mesh 'g tilling_sample_tilling_sample' with 18 faces
g g tilling_sample_tilling_sample
usemtl DefaultMaterial
f  1/1/1 2/2/1 3/3/1
f  3/3/1 4/4/1 1/1/1
f  4/1/1 3/2/1 5/3/1
f  5/3/1 6/4/1 4/1/1
f  6/1/1 5/2/1 7/3/1
f  7/3/1 8/4/1 6/1/1
f  9/1/1 1/2/1 4/3/1
f  4/3/1 10/4/1 9/1/1
f  10/1/1 4/2/1 6/3/1
f  6/3/1 11/4/1 10/1/1
f  11/1/1 6/2/1 8/3/1
f  8/3/1 12/4/1 11/1/1
f  13/1/1 9/2/1 10/3/1
f  10/3/1 14/4/1 13/1/1
f  14/1/1 10/2/1 11/3/1
f  11/3/1 15/4/1 14/1/1
f  15/1/1 11/2/1 12/3/1
f  12/3/1 16/4/1 15/1/1

